<mxfile host="app.diagrams.net" modified="2024-04-09T09:45:26.470Z" agent="Mozilla/5.0 (X11; Linux x86_64; rv:123.0) Gecko/20100101 Firefox/123.0" version="24.2.3" etag="MwuNRm2rPezEQIE8IUSA" type="github">
  <diagram name="Page-1" id="mf1GfFJE68P0G_t5wAqi">
    <mxGraphModel>
      <root>
        <mxCell id="0" />
        <mxCell id="1" parent="0" />
      </root>
    </mxGraphModel>
  </diagram>
</mxfile>
